<svg id="Слой_1" data-name="Слой 1" xmlns="http://www.w3.org/2000/svg" xmlns:xlink="http://www.w3.org/1999/xlink" viewBox="0 0 127 128"><defs><style>.cls-1{opacity:0.8;filter:url(#w);}.cls-1,.cls-3{isolation:isolate;}.cls-2{fill:#fd5;}.cls-3{opacity:0.94;filter:url(#u);}.cls-4{fill:url(#Безымянный_градиент_7);}.cls-5{filter:url(#x);}.cls-6{fill:url(#Безымянный_градиент_8);}.cls-7{fill:url(#Безымянный_градиент_9);}</style><filter id="w" name="w"><feGaussianBlur stdDeviation="0.98"/></filter><filter id="u" name="u"><feGaussianBlur stdDeviation="3.03"/></filter><radialGradient id="Безымянный_градиент_7" cx="1685.39" cy="179.31" r="50.51" gradientTransform="matrix(0.61, -0.02, -0.03, -0.9, -970.6, 280.21)" gradientUnits="userSpaceOnUse"><stop offset="0" stop-color="#ff0"/><stop offset="1" stop-color="#fea917"/></radialGradient><filter id="x" name="x"><feGaussianBlur stdDeviation="2.02"/></filter><linearGradient id="Безымянный_градиент_8" x1="2110.45" y1="-731.08" x2="2230.48" y2="-613.07" gradientTransform="matrix(0.56, 0, 0, -0.56, -1161.53, -306.39)" gradientUnits="userSpaceOnUse"><stop offset="0" stop-color="#ff0"/><stop offset="1" stop-color="#ff0" stop-opacity="0"/></linearGradient><linearGradient id="Безымянный_градиент_9" x1="2200.01" y1="-554.6" x2="2181.46" y2="-660.19" gradientTransform="matrix(0.56, 0, 0, -0.56, -1161.53, -306.39)" gradientUnits="userSpaceOnUse"><stop offset="0" stop-color="#fff"/><stop offset="1" stop-color="#fff" stop-opacity="0"/></linearGradient></defs><g class="cls-1"><polygon class="cls-2" points="60.25 10.65 61.55 38.95 58.35 21.47 60.6 39.24 58.34 29.61 56.91 20.83 57.84 27.51 54.83 14.67 58.94 37.97 54.83 23.98 56.98 35.52 49.52 13.55 56.17 37.38 50.47 23.23 53.68 34.4 45.71 17.18 53.24 39.15 47.86 29.98 46.02 26.43 46.74 28.07 40.3 17.09 51.82 42.42 51.3 41.69 41.55 26.68 45.22 33.23 41.16 27.58 46.68 37.24 35.48 21.73 47.56 41 40.21 31.81 47.66 42.76 30.11 22.86 44.63 41.67 36.05 32.86 45.61 44.33 29.4 29.27 47 48.36 40.23 43.28 24.56 31.32 44.8 49.39 28 39.16 30.27 40.86 29.44 40.36 35.05 44.52 37.66 46.5 20.37 37.11 37.18 48.61 28.79 44.01 38.94 49.81 40.11 50.61 15.95 40.39 34.61 50.64 25.41 46.7 36.56 51.71 40.69 53.98 29.37 50.39 17.78 46.08 26.29 49.41 23.11 48.39 30.28 51.51 24.97 49.95 39.79 56.67 38.66 56.45 14.18 49.97 33.7 55.5 22.04 53.27 30.91 56.29 14.23 53.96 22.72 56.38 22.38 56.33 22.77 56.4 33.46 59.46 26.1 59.15 22.23 58.7 24.94 59.1 11.27 58.53 34.65 62.81 32.96 62.89 20.08 62.64 29 63.09 20.66 63.52 31.06 64.45 12.48 65.01 37.9 65.06 38.41 65.11 23.55 67.11 41.21 66.28 24.79 68.39 22.43 68.68 10.57 70.2 37.9 67.6 22.3 71.25 34.6 69.47 26.12 71.93 20.98 73.08 24.4 72.42 15.56 74.97 40.08 70.2 23.64 75.45 35.65 71.98 14.79 80.25 39.81 72.81 23.23 79.93 41.15 72.81 25.18 80.93 27.53 79.98 17.14 85.07 34.02 77.38 41.15 74.5 28.15 82.59 44.43 73.96 17.46 90.59 43.62 75.43 28.66 86.88 39.28 79.84 29.83 87.86 28.14 89.13 29.29 88.32 23.91 92.87 46.24 76.44 31.79 90.5 35.38 87.63 25.28 98.02 42.62 82.47 46.76 78.78 33.24 94.75 40.62 87.56 38.32 90.56 35.05 94.6 36.05 93.52 29.73 101.81 46.64 83.52 46.09 84.41 38.64 94.99 42.24 90.57 32.23 106.73 48.27 85.6 40.82 98.73 47.58 88.64 38.81 106.02 50.94 85.8 52.57 83.18 45.21 100.35 48.03 94.89 42.11 110.18 54.22 84.65 48.18 103.63 52.77 92.2 52.16 94.51 49.67 103.23 50.33 101.43 47.71 111.33 54.56 91.37 51.58 103.79 55.34 93.72 51.91 114.8 57.02 93.35 55.17 106.56 57.56 97.59 56.03 114.34 58.12 104.56 58 106.24 58.49 102.79 60.7 92.37 60.87 117.1 63.82 90.98 65.47 107.44 65.75 93.82 68.01 113.99 65.86 89.05 68.77 104.24 67.76 89.41 73.29 115.51 68.54 89.8 73.09 105.31 71.63 96.58 76.93 111.84 72.23 90.42 75.85 98.29 77.72 103.16 76.63 99.96 82.34 112.38 74.42 87.88 75.63 89.97 82.29 103.26 78.43 94.82 82.58 101.98 79.23 94.16 87.55 108.91 76.12 86.8 84.56 100.1 73.14 79.75 93.1 108.25 78.96 86.41 89.09 99.39 79.75 85.99 95.3 103.99 84.91 90.57 91.04 97.8 78.69 82.11 90.8 94.02 87.62 89.95 100.65 102.35 81.29 81.81 80.38 80.62 94.96 92.45 89.67 86.85 96.72 92.43 92.92 89.08 101.75 95.53 86.89 81.3 106.5 92.91 87.69 78.1 97.67 82.82 101.58 84.92 99.25 83.57 100.78 84.3 89.87 77.24 109.06 86.36 86.86 74.91 102 80.71 81.33 71.72 79.25 70.37 93.02 75.35 102.36 78.76 101.22 78.31 113.17 82.62 88.92 72.96 105.27 77.46 87.84 71.83 112.93 77.41 104.32 75.09 90.82 71.12 102.61 73.04 89.08 69.58 116.3 72.93 89.42 68.41 105.13 69.42 94.34 67.75 112.31 68 104.71 67.22 107.25 67.29 101.04 66.83 87.74 65.45 98.06 64.6 104.29 64.33 102.09 64.26 114.69 63.21 85.89 63.03 106 60.2 98.53 60.69 105.2 59.51 96.76 60.24 112.8 57.17 89.73 59.85 104.59 56.38 94.12 57.77 114.12 51.9 90.4 57.01 105.5 51.9 93.37 54.74 111.73 47.5 97.5 51.59 102.27 49.76 88.75 53.84 112.02 41.95 97.64 47.63 102.43 45.25 86.81 51.66 87 51.54 107.74 39.92 98.43 44.3 101.41 42.4 87.81 49.29 82.8 51.64 98.58 40.93 95.13 42.88 97.75 41.07 96.67 41.71 107.09 34.45 82.36 49.17 97.69 36.45 94.29 38.82 96.84 36.67 84.64 45.55 101.7 29.9 84.8 42.98 92.1 35.72 80.06 46.67 92.09 33.39 91.33 34.1 99.8 24.66 83.56 39.97 90.43 31.68 78.99 44.28 90.16 29.26 86.1 33.88 92.92 24.72 76.69 44.54 75.93 45.4 85.67 28.84 81.9 34.2 84.58 29.83 81.99 33.66 90.16 20.16 74.46 43.64 83.03 25.16 79.65 31.14 81.99 26.31 75.54 38.17 83.92 17.55 73.76 37.68 77.93 25.99 73.27 36.52 80.06 13.61 71.55 35.57 74.69 23 70.52 35.6 73.26 21.75 71.67 27.33 74.02 15.5 69.79 30.73 71.19 22.83 69.16 33.03 66.64 42.12 67.81 30.17 68.48 23.74 68.42 24.15 69.57 12.47 66.71 28.75 67.37 20.39 66.29 31.2 64.51 41.27 64.51 40.19 65.3 12.9 64.61 26.62 64.64 21.61 63.53 35.25 62.5 23.03 63.02 41.47 62.72 45.28 62.61 44.74 61.19 22.29 61.43 28.19 60.24 10.65 60.25 10.65"/></g><g class="cls-3"><circle class="cls-2" cx="63.37" cy="66.17" r="35.62"/></g><path class="cls-4" d="M94,65.16A30.84,30.84,0,1,1,63.21,34.32,30.83,30.83,0,0,1,94,65.16Z"/><g class="cls-5"><circle class="cls-6" cx="63.64" cy="65.16" r="28.37"/></g><path class="cls-7" d="M92,65.16A28.37,28.37,0,1,1,63.64,36.79,28.37,28.37,0,0,1,92,65.16Z"/></svg>